<svg width="678" height="298" viewBox="0 0 678 298" fill="none" xmlns="http://www.w3.org/2000/svg">
<g filter="url(#filter0_d)">
<rect width="668" height="288" rx="16" transform="matrix(-1 0 0 1 673 3)" fill="#333333"/>
<path d="M5 51L673 51V11C673 6.58172 669.418 3 665 3L13 3C8.58173 3 5 6.58172 5 11L5 51Z" fill="#C9E2FF"/>
<path d="M303.842 25.508C304.322 25.06 304.85 24.696 305.426 24.416C306.002 24.136 306.678 23.996 307.454 23.996C308.126 23.996 308.722 24.112 309.242 24.344C309.762 24.568 310.194 24.888 310.538 25.304C310.89 25.712 311.154 26.204 311.33 26.78C311.514 27.348 311.606 27.976 311.606 28.664V36.5H308.642V28.664C308.642 27.912 308.47 27.332 308.126 26.924C307.782 26.508 307.258 26.3 306.554 26.3C306.042 26.3 305.562 26.416 305.114 26.648C304.666 26.88 304.242 27.196 303.842 27.596V36.5H300.878V18.668H303.842V25.508ZM325.281 24.188L318.573 39.884C318.485 40.092 318.369 40.248 318.225 40.352C318.089 40.464 317.877 40.52 317.589 40.52H315.381L317.685 35.576L312.705 24.188H315.309C315.541 24.188 315.721 24.244 315.849 24.356C315.985 24.468 316.085 24.596 316.149 24.74L318.765 31.124C318.853 31.34 318.925 31.556 318.981 31.772C319.045 31.988 319.105 32.208 319.161 32.432C319.233 32.208 319.305 31.988 319.377 31.772C319.449 31.548 319.529 31.328 319.617 31.112L322.089 24.74C322.153 24.58 322.257 24.448 322.401 24.344C322.553 24.24 322.721 24.188 322.905 24.188H325.281ZM329.717 33.308C330.053 33.716 330.417 34.004 330.809 34.172C331.209 34.34 331.641 34.424 332.105 34.424C332.553 34.424 332.957 34.34 333.317 34.172C333.677 34.004 333.981 33.748 334.229 33.404C334.485 33.06 334.681 32.628 334.817 32.108C334.953 31.58 335.021 30.96 335.021 30.248C335.021 29.528 334.961 28.92 334.841 28.424C334.729 27.92 334.565 27.512 334.349 27.2C334.133 26.888 333.869 26.66 333.557 26.516C333.253 26.372 332.905 26.3 332.513 26.3C331.897 26.3 331.373 26.432 330.941 26.696C330.509 26.952 330.101 27.316 329.717 27.788V33.308ZM329.561 25.868C330.065 25.3 330.637 24.84 331.277 24.488C331.917 24.136 332.669 23.96 333.533 23.96C334.205 23.96 334.817 24.1 335.369 24.38C335.929 24.66 336.409 25.068 336.809 25.604C337.217 26.132 337.529 26.788 337.745 27.572C337.969 28.348 338.081 29.24 338.081 30.248C338.081 31.168 337.957 32.02 337.709 32.804C337.461 33.588 337.105 34.268 336.641 34.844C336.185 35.42 335.629 35.872 334.973 36.2C334.325 36.52 333.597 36.68 332.789 36.68C332.101 36.68 331.513 36.576 331.025 36.368C330.537 36.152 330.101 35.856 329.717 35.48V40.52H326.753V24.188H328.565C328.949 24.188 329.201 24.368 329.321 24.728L329.561 25.868ZM346.898 31.244C346.042 31.284 345.322 31.36 344.738 31.472C344.154 31.576 343.686 31.712 343.334 31.88C342.982 32.048 342.73 32.244 342.578 32.468C342.426 32.692 342.35 32.936 342.35 33.2C342.35 33.72 342.502 34.092 342.806 34.316C343.118 34.54 343.522 34.652 344.018 34.652C344.626 34.652 345.15 34.544 345.59 34.328C346.038 34.104 346.474 33.768 346.898 33.32V31.244ZM340.106 25.904C341.522 24.608 343.226 23.96 345.218 23.96C345.938 23.96 346.582 24.08 347.15 24.32C347.718 24.552 348.198 24.88 348.59 25.304C348.982 25.72 349.278 26.22 349.478 26.804C349.686 27.388 349.79 28.028 349.79 28.724V36.5H348.446C348.166 36.5 347.95 36.46 347.798 36.38C347.646 36.292 347.526 36.12 347.438 35.864L347.174 34.976C346.862 35.256 346.558 35.504 346.262 35.72C345.966 35.928 345.658 36.104 345.338 36.248C345.018 36.392 344.674 36.5 344.306 36.572C343.946 36.652 343.546 36.692 343.106 36.692C342.586 36.692 342.106 36.624 341.666 36.488C341.226 36.344 340.846 36.132 340.526 35.852C340.206 35.572 339.958 35.224 339.782 34.808C339.606 34.392 339.518 33.908 339.518 33.356C339.518 33.044 339.57 32.736 339.674 32.432C339.778 32.12 339.946 31.824 340.178 31.544C340.418 31.264 340.726 31 341.102 30.752C341.478 30.504 341.938 30.288 342.482 30.104C343.034 29.92 343.674 29.772 344.402 29.66C345.13 29.54 345.962 29.468 346.898 29.444V28.724C346.898 27.9 346.722 27.292 346.37 26.9C346.018 26.5 345.51 26.3 344.846 26.3C344.366 26.3 343.966 26.356 343.646 26.468C343.334 26.58 343.058 26.708 342.818 26.852C342.578 26.988 342.358 27.112 342.158 27.224C341.966 27.336 341.75 27.392 341.51 27.392C341.302 27.392 341.126 27.34 340.982 27.236C340.838 27.124 340.722 26.996 340.634 26.852L340.106 25.904ZM364.837 36.5H361.873V26.408H356.161V33.08C356.161 33.464 356.253 33.764 356.437 33.98C356.629 34.196 356.889 34.304 357.217 34.304C357.401 34.304 357.553 34.284 357.673 34.244C357.801 34.196 357.909 34.148 357.997 34.1C358.093 34.052 358.177 34.008 358.249 33.968C358.321 33.92 358.393 33.896 358.465 33.896C358.553 33.896 358.625 33.92 358.681 33.968C358.737 34.008 358.797 34.072 358.861 34.16L359.749 35.6C359.317 35.96 358.821 36.232 358.261 36.416C357.701 36.6 357.121 36.692 356.521 36.692C355.449 36.692 354.625 36.392 354.049 35.792C353.481 35.184 353.197 34.348 353.197 33.284V26.408H351.937C351.777 26.408 351.641 26.356 351.529 26.252C351.417 26.148 351.361 25.992 351.361 25.784V24.608L353.341 24.272L353.965 20.924C354.005 20.764 354.081 20.64 354.193 20.552C354.305 20.464 354.449 20.42 354.625 20.42H356.161V24.296H364.837V36.5ZM365.353 20.552C365.353 20.808 365.301 21.052 365.197 21.284C365.093 21.508 364.953 21.704 364.777 21.872C364.609 22.04 364.405 22.176 364.165 22.28C363.933 22.376 363.685 22.424 363.421 22.424C363.165 22.424 362.925 22.376 362.701 22.28C362.477 22.176 362.281 22.04 362.113 21.872C361.945 21.704 361.809 21.508 361.705 21.284C361.609 21.052 361.561 20.808 361.561 20.552C361.561 20.288 361.609 20.044 361.705 19.82C361.809 19.588 361.945 19.388 362.113 19.22C362.281 19.044 362.477 18.908 362.701 18.812C362.925 18.708 363.165 18.656 363.421 18.656C363.685 18.656 363.933 18.708 364.165 18.812C364.405 18.908 364.609 19.044 364.777 19.22C364.953 19.388 365.093 19.588 365.197 19.82C365.301 20.044 365.353 20.288 365.353 20.552ZM374.366 31.244C373.51 31.284 372.79 31.36 372.206 31.472C371.622 31.576 371.154 31.712 370.802 31.88C370.45 32.048 370.198 32.244 370.046 32.468C369.894 32.692 369.818 32.936 369.818 33.2C369.818 33.72 369.97 34.092 370.274 34.316C370.586 34.54 370.99 34.652 371.486 34.652C372.094 34.652 372.618 34.544 373.058 34.328C373.506 34.104 373.942 33.768 374.366 33.32V31.244ZM367.574 25.904C368.99 24.608 370.694 23.96 372.686 23.96C373.406 23.96 374.05 24.08 374.618 24.32C375.186 24.552 375.666 24.88 376.058 25.304C376.45 25.72 376.746 26.22 376.946 26.804C377.154 27.388 377.258 28.028 377.258 28.724V36.5H375.914C375.634 36.5 375.418 36.46 375.266 36.38C375.114 36.292 374.994 36.12 374.906 35.864L374.642 34.976C374.33 35.256 374.026 35.504 373.73 35.72C373.434 35.928 373.126 36.104 372.806 36.248C372.486 36.392 372.142 36.5 371.774 36.572C371.414 36.652 371.014 36.692 370.574 36.692C370.054 36.692 369.574 36.624 369.134 36.488C368.694 36.344 368.314 36.132 367.994 35.852C367.674 35.572 367.426 35.224 367.25 34.808C367.074 34.392 366.986 33.908 366.986 33.356C366.986 33.044 367.038 32.736 367.142 32.432C367.246 32.12 367.414 31.824 367.646 31.544C367.886 31.264 368.194 31 368.57 30.752C368.946 30.504 369.406 30.288 369.95 30.104C370.502 29.92 371.142 29.772 371.87 29.66C372.598 29.54 373.43 29.468 374.366 29.444V28.724C374.366 27.9 374.19 27.292 373.838 26.9C373.486 26.5 372.978 26.3 372.314 26.3C371.834 26.3 371.434 26.356 371.114 26.468C370.802 26.58 370.526 26.708 370.286 26.852C370.046 26.988 369.826 27.112 369.626 27.224C369.434 27.336 369.218 27.392 368.978 27.392C368.77 27.392 368.594 27.34 368.45 27.236C368.306 27.124 368.19 26.996 368.102 26.852L367.574 25.904Z" fill="#1C7EF0"/>
<rect width="334" height="208" transform="matrix(-1 0 0 1 673 51)" fill="#383131"/>
<rect x="381" y="67" width="128" height="16" fill="white"/>
<path d="M363.471 79.788C363.983 79.7133 364.367 79.54 364.623 79.268C364.879 78.9907 365.007 78.6227 365.007 78.164C365.007 77.9827 364.975 77.8253 364.911 77.692C364.847 77.5533 364.759 77.4307 364.647 77.324C364.535 77.2173 364.402 77.124 364.247 77.044C364.093 76.9587 363.925 76.884 363.743 76.82L363.471 79.788ZM362.855 71.628C362.583 71.6653 362.351 71.7267 362.159 71.812C361.967 71.892 361.81 71.9907 361.687 72.108C361.57 72.2253 361.482 72.356 361.423 72.5C361.37 72.6387 361.343 72.788 361.343 72.948C361.343 73.1293 361.373 73.292 361.431 73.436C361.495 73.5747 361.583 73.7 361.695 73.812C361.807 73.924 361.941 74.0253 362.095 74.116C362.25 74.2013 362.421 74.2787 362.607 74.348L362.855 71.628ZM363.927 74.78C364.183 74.8547 364.439 74.9373 364.695 75.028C364.951 75.1133 365.197 75.212 365.431 75.324C365.666 75.436 365.885 75.5667 366.087 75.716C366.29 75.8653 366.466 76.0413 366.615 76.244C366.77 76.4413 366.89 76.6707 366.975 76.932C367.061 77.1933 367.103 77.492 367.103 77.828C367.103 78.324 367.018 78.7933 366.847 79.236C366.682 79.6733 366.437 80.0627 366.111 80.404C365.786 80.74 365.389 81.0147 364.919 81.228C364.45 81.4413 363.911 81.5693 363.303 81.612L363.207 82.7C363.197 82.8387 363.138 82.964 363.031 83.076C362.925 83.188 362.786 83.244 362.615 83.244H361.807L361.959 81.556C361.655 81.5133 361.354 81.4493 361.055 81.364C360.762 81.2733 360.479 81.1667 360.207 81.044C359.935 80.916 359.679 80.7747 359.439 80.62C359.199 80.46 358.983 80.2867 358.791 80.1L359.471 79.1C359.53 79.0147 359.61 78.9453 359.711 78.892C359.813 78.8333 359.917 78.804 360.023 78.804C360.146 78.804 360.274 78.8413 360.407 78.916C360.541 78.9907 360.687 79.0813 360.847 79.188C361.013 79.2893 361.197 79.3933 361.399 79.5C361.607 79.6067 361.847 79.6893 362.119 79.748L362.423 76.428C362.167 76.3587 361.911 76.2813 361.655 76.196C361.405 76.1053 361.162 76.0013 360.927 75.884C360.693 75.7667 360.474 75.6307 360.271 75.476C360.074 75.316 359.901 75.1267 359.751 74.908C359.602 74.6893 359.485 74.4387 359.399 74.156C359.314 73.868 359.271 73.5373 359.271 73.164C359.271 72.748 359.354 72.3453 359.519 71.956C359.685 71.5613 359.925 71.2093 360.239 70.9C360.559 70.5907 360.951 70.3373 361.415 70.14C361.879 69.9373 362.413 69.82 363.015 69.788L363.103 68.836C363.114 68.6973 363.173 68.5747 363.279 68.468C363.391 68.356 363.53 68.3 363.695 68.3H364.511L364.367 69.868C364.943 69.9693 365.437 70.1347 365.847 70.364C366.258 70.5933 366.61 70.852 366.903 71.14L366.359 71.94C366.285 72.0627 366.205 72.1533 366.119 72.212C366.034 72.2653 365.933 72.292 365.815 72.292C365.735 72.292 365.639 72.2707 365.527 72.228C365.421 72.18 365.301 72.124 365.167 72.06C365.034 71.9907 364.885 71.9213 364.719 71.852C364.559 71.7827 364.389 71.724 364.207 71.676L363.927 74.78Z" fill="#C4C4C4"/>
<rect x="355" y="99" width="128" height="48" fill="white"/>
<rect x="381" y="163" width="128" height="16" fill="white"/>
<path d="M363.471 175.788C363.983 175.713 364.367 175.54 364.623 175.268C364.879 174.991 365.007 174.623 365.007 174.164C365.007 173.983 364.975 173.825 364.911 173.692C364.847 173.553 364.759 173.431 364.647 173.324C364.535 173.217 364.402 173.124 364.247 173.044C364.093 172.959 363.925 172.884 363.743 172.82L363.471 175.788ZM362.855 167.628C362.583 167.665 362.351 167.727 362.159 167.812C361.967 167.892 361.81 167.991 361.687 168.108C361.57 168.225 361.482 168.356 361.423 168.5C361.37 168.639 361.343 168.788 361.343 168.948C361.343 169.129 361.373 169.292 361.431 169.436C361.495 169.575 361.583 169.7 361.695 169.812C361.807 169.924 361.941 170.025 362.095 170.116C362.25 170.201 362.421 170.279 362.607 170.348L362.855 167.628ZM363.927 170.78C364.183 170.855 364.439 170.937 364.695 171.028C364.951 171.113 365.197 171.212 365.431 171.324C365.666 171.436 365.885 171.567 366.087 171.716C366.29 171.865 366.466 172.041 366.615 172.244C366.77 172.441 366.89 172.671 366.975 172.932C367.061 173.193 367.103 173.492 367.103 173.828C367.103 174.324 367.018 174.793 366.847 175.236C366.682 175.673 366.437 176.063 366.111 176.404C365.786 176.74 365.389 177.015 364.919 177.228C364.45 177.441 363.911 177.569 363.303 177.612L363.207 178.7C363.197 178.839 363.138 178.964 363.031 179.076C362.925 179.188 362.786 179.244 362.615 179.244H361.807L361.959 177.556C361.655 177.513 361.354 177.449 361.055 177.364C360.762 177.273 360.479 177.167 360.207 177.044C359.935 176.916 359.679 176.775 359.439 176.62C359.199 176.46 358.983 176.287 358.791 176.1L359.471 175.1C359.53 175.015 359.61 174.945 359.711 174.892C359.813 174.833 359.917 174.804 360.023 174.804C360.146 174.804 360.274 174.841 360.407 174.916C360.541 174.991 360.687 175.081 360.847 175.188C361.013 175.289 361.197 175.393 361.399 175.5C361.607 175.607 361.847 175.689 362.119 175.748L362.423 172.428C362.167 172.359 361.911 172.281 361.655 172.196C361.405 172.105 361.162 172.001 360.927 171.884C360.693 171.767 360.474 171.631 360.271 171.476C360.074 171.316 359.901 171.127 359.751 170.908C359.602 170.689 359.485 170.439 359.399 170.156C359.314 169.868 359.271 169.537 359.271 169.164C359.271 168.748 359.354 168.345 359.519 167.956C359.685 167.561 359.925 167.209 360.239 166.9C360.559 166.591 360.951 166.337 361.415 166.14C361.879 165.937 362.413 165.82 363.015 165.788L363.103 164.836C363.114 164.697 363.173 164.575 363.279 164.468C363.391 164.356 363.53 164.3 363.695 164.3H364.511L364.367 165.868C364.943 165.969 365.437 166.135 365.847 166.364C366.258 166.593 366.61 166.852 366.903 167.14L366.359 167.94C366.285 168.063 366.205 168.153 366.119 168.212C366.034 168.265 365.933 168.292 365.815 168.292C365.735 168.292 365.639 168.271 365.527 168.228C365.421 168.18 365.301 168.124 365.167 168.06C365.034 167.991 364.885 167.921 364.719 167.852C364.559 167.783 364.389 167.724 364.207 167.676L363.927 170.78Z" fill="#C4C4C4"/>
<rect x="355" y="195" width="128" height="16" fill="white"/>
<rect x="381" y="227" width="8" height="16" fill="white"/>
<path d="M363.471 239.788C363.983 239.713 364.367 239.54 364.623 239.268C364.879 238.991 365.007 238.623 365.007 238.164C365.007 237.983 364.975 237.825 364.911 237.692C364.847 237.553 364.759 237.431 364.647 237.324C364.535 237.217 364.402 237.124 364.247 237.044C364.093 236.959 363.925 236.884 363.743 236.82L363.471 239.788ZM362.855 231.628C362.583 231.665 362.351 231.727 362.159 231.812C361.967 231.892 361.81 231.991 361.687 232.108C361.57 232.225 361.482 232.356 361.423 232.5C361.37 232.639 361.343 232.788 361.343 232.948C361.343 233.129 361.373 233.292 361.431 233.436C361.495 233.575 361.583 233.7 361.695 233.812C361.807 233.924 361.941 234.025 362.095 234.116C362.25 234.201 362.421 234.279 362.607 234.348L362.855 231.628ZM363.927 234.78C364.183 234.855 364.439 234.937 364.695 235.028C364.951 235.113 365.197 235.212 365.431 235.324C365.666 235.436 365.885 235.567 366.087 235.716C366.29 235.865 366.466 236.041 366.615 236.244C366.77 236.441 366.89 236.671 366.975 236.932C367.061 237.193 367.103 237.492 367.103 237.828C367.103 238.324 367.018 238.793 366.847 239.236C366.682 239.673 366.437 240.063 366.111 240.404C365.786 240.74 365.389 241.015 364.919 241.228C364.45 241.441 363.911 241.569 363.303 241.612L363.207 242.7C363.197 242.839 363.138 242.964 363.031 243.076C362.925 243.188 362.786 243.244 362.615 243.244H361.807L361.959 241.556C361.655 241.513 361.354 241.449 361.055 241.364C360.762 241.273 360.479 241.167 360.207 241.044C359.935 240.916 359.679 240.775 359.439 240.62C359.199 240.46 358.983 240.287 358.791 240.1L359.471 239.1C359.53 239.015 359.61 238.945 359.711 238.892C359.813 238.833 359.917 238.804 360.023 238.804C360.146 238.804 360.274 238.841 360.407 238.916C360.541 238.991 360.687 239.081 360.847 239.188C361.013 239.289 361.197 239.393 361.399 239.5C361.607 239.607 361.847 239.689 362.119 239.748L362.423 236.428C362.167 236.359 361.911 236.281 361.655 236.196C361.405 236.105 361.162 236.001 360.927 235.884C360.693 235.767 360.474 235.631 360.271 235.476C360.074 235.316 359.901 235.127 359.751 234.908C359.602 234.689 359.485 234.439 359.399 234.156C359.314 233.868 359.271 233.537 359.271 233.164C359.271 232.748 359.354 232.345 359.519 231.956C359.685 231.561 359.925 231.209 360.239 230.9C360.559 230.591 360.951 230.337 361.415 230.14C361.879 229.937 362.413 229.82 363.015 229.788L363.103 228.836C363.114 228.697 363.173 228.575 363.279 228.468C363.391 228.356 363.53 228.3 363.695 228.3H364.511L364.367 229.868C364.943 229.969 365.437 230.135 365.847 230.364C366.258 230.593 366.61 230.852 366.903 231.14L366.359 231.94C366.285 232.063 366.205 232.153 366.119 232.212C366.034 232.265 365.933 232.292 365.815 232.292C365.735 232.292 365.639 232.271 365.527 232.228C365.421 232.18 365.301 232.124 365.167 232.06C365.034 231.991 364.885 231.921 364.719 231.852C364.559 231.783 364.389 231.724 364.207 231.676L363.927 234.78Z" fill="#C4C4C4"/>
<rect width="334" height="208" transform="matrix(-1 0 0 1 339 51)" fill="white"/>
<rect x="21" y="67" width="200" height="16" fill="#A29F9F"/>
<rect x="21" y="99" width="256" height="48" fill="#A29F9F"/>
<rect x="21" y="163" width="256" height="48" fill="#F75774"/>
<rect x="21" y="227" width="256" height="16" fill="#A29F9F"/>
<path d="M5 259H673V283C673 287.418 669.418 291 665 291H13C8.58173 291 5 287.418 5 283V259Z" fill="#726D6D"/>
</g>
<defs>
<filter id="filter0_d" x="0" y="0" width="678" height="298" filterUnits="userSpaceOnUse" color-interpolation-filters="sRGB">
<feFlood flood-opacity="0" result="BackgroundImageFix"/>
<feColorMatrix in="SourceAlpha" type="matrix" values="0 0 0 0 0 0 0 0 0 0 0 0 0 0 0 0 0 0 127 0" result="hardAlpha"/>
<feMorphology radius="1" operator="dilate" in="SourceAlpha" result="effect1_dropShadow"/>
<feOffset dy="2"/>
<feGaussianBlur stdDeviation="2"/>
<feComposite in2="hardAlpha" operator="out"/>
<feColorMatrix type="matrix" values="0 0 0 0 0 0 0 0 0 0 0 0 0 0 0 0 0 0 0.25 0"/>
<feBlend mode="normal" in2="BackgroundImageFix" result="effect1_dropShadow"/>
<feBlend mode="normal" in="SourceGraphic" in2="effect1_dropShadow" result="shape"/>
</filter>
</defs>
</svg>
