<svg width="96" height="240" viewBox="0 0 96 240" fill="none" xmlns="http://www.w3.org/2000/svg">
<path d="M32 140H64V224C64 232.837 56.8366 240 48 240V240C39.1634 240 32 232.837 32 224V140Z" fill="#ACC8DB"/>
<path d="M0 4C0 1.79086 1.79086 0 4 0H28C30.2091 0 32 1.79086 32 4V96H0V4Z" fill="#9AA8BE"/>
<path d="M64 4C64 1.79086 65.7909 0 68 0H92C94.2091 0 96 1.79086 96 4V96H64V4Z" fill="#9AA8BE"/>
<path fill-rule="evenodd" clip-rule="evenodd" d="M32 50.7312C13.3569 57.3206 0 75.1004 0 95.9999C0 122.51 21.4903 144 48 144C74.5097 144 96 122.51 96 95.9999C96 75.1004 82.6431 57.3206 64 50.7312V95.9999C64 104.836 56.8366 112 48 112C39.1634 112 32 104.836 32 95.9999V50.7312Z" fill="#9AA8BE"/>
</svg>
